<svg width="16" height="14.000000000000002" xmlns="http://www.w3.org/2000/svg">

 <g>
  <title>background</title>
  <rect fill="none" id="canvas_background" height="16" width="18" y="-1" x="-1"/>
 </g>
 <g>
  <title>Layer 1</title>
  <path stroke="null" fill="#ffffff" id="svg_1" d="m11.199605,3.707569c0,-1.334785 -1.342627,-2.417723 -2.999656,-2.417723s-2.999656,1.082939 -2.999656,2.417723c0,1.335566 1.342627,2.417723 2.999656,2.417723s2.999656,-1.082158 2.999656,-2.417723zm-2.999656,1.611816c-1.103874,0 -1.999771,-0.722093 -1.999771,-1.611816s0.895897,-1.611816 1.999771,-1.611816c1.103389,0 1.999771,0.722093 1.999771,1.611816s-0.896382,1.611816 -1.999771,1.611816zm1.999771,0.805908l-1.999771,0l-1.999771,0c-1.103874,0 -1.999771,0.722093 -1.999771,1.611816l0,1.611816c0,0.889332 0.895897,1.611816 1.999771,1.611816l0,3.223631l3.999542,0l0,-3.223631c1.103389,0 1.999771,-0.722484 1.999771,-1.611816l0,-1.611816c0,-0.889722 -0.896382,-1.611816 -1.999771,-1.611816zm0.999885,3.223631c0,0.445453 -0.447214,0.805908 -0.999885,0.805908l0,-1.611816l-0.999885,0l0,4.835447l-1.999771,0l0,-4.835447l-0.999885,0l0,1.611816c-0.551687,0 -0.999885,-0.360455 -0.999885,-0.805908l0,-1.611816c0,-0.44466 0.448199,-0.805908 0.999885,-0.805908l3.999542,0c0.552671,0 0.999885,0.361248 0.999885,0.805908l0,1.611816z"/>
 </g>
</svg>