<svg width="16" height="16" xmlns="http://www.w3.org/2000/svg">

 <g>
  <title>background</title>
  <rect fill="none" id="canvas_background" height="18" width="18" y="-1" x="-1"/>
 </g>
 <g>
  <title>Layer 1</title>
  <path fill="#ffffff" stroke="null" id="svg_1" d="m15.768205,15.851088c0,0 0,-1.079525 -0.089011,-1.643822c-0.072827,-0.445713 -0.683764,-1.034544 -3.281258,-1.999574c-2.557034,-0.948673 -2.399243,-0.486604 -2.399243,-2.232653c0,-1.132683 0.570478,-0.474337 0.934612,-2.625208c0.141608,-0.846445 0.254894,-0.282148 0.562386,-1.639732c0.161838,-0.711505 -0.10924,-0.764663 -0.076873,-1.104059c0.032368,-0.339396 0.064735,-0.64199 0.125424,-1.337138c0.072827,-0.858713 -0.716131,-3.11999 -3.544244,-3.11999c-2.828112,0 -3.617071,2.261277 -3.540198,3.124079c0.060689,0.691059 0.093057,0.997742 0.125424,1.337138c0.032368,0.339396 -0.23871,0.392554 -0.076873,1.104059c0.307491,1.353495 0.420778,0.789198 0.562386,1.639732c0.364135,2.150871 0.934612,1.492525 0.934612,2.625208c0,1.750138 0.157792,1.288069 -2.399243,2.232653c-2.597494,0.96094 -3.212477,1.553861 -3.281258,1.999574c-0.093057,0.560208 -0.093057,1.639732 -0.093057,1.639732l7.768205,0l7.768205,0z"/>
 </g>
</svg>