<svg width="16" height="18" xmlns="http://www.w3.org/2000/svg">
 <title/>
 <desc/>

 <g>
  <title>background</title>
  <rect fill="none" id="canvas_background" height="20" width="18" y="-1" x="-1"/>
 </g>
 <g>
  <title>Layer 1</title>
  <path stroke="null" fill="#ffffff" id="Shape" d="m13.482276,3.071802l-11.796992,0c-0.926906,0 -1.685285,0.748405 -1.685285,1.663121l0,11.641848c0,0.914717 0.758378,1.663121 1.685285,1.663121l11.796992,0c0.926906,0 1.685285,-0.748405 1.685285,-1.663121l0,-11.641848c0,-0.914717 -0.758378,-1.663121 -1.685285,-1.663121l0,0zm-8.426423,11.641848l-1.685285,0l0,-1.663121l1.685285,0l0,1.663121l0,0zm0,-3.326242l-1.685285,0l0,-1.663121l1.685285,0l0,1.663121l0,0zm0,-3.326242l-1.685285,0l0,-1.663121l1.685285,0l0,1.663121l0,0zm6.741138,6.652485l-5.898496,0l0,-1.663121l5.898496,0l0,1.663121l0,0zm0,-3.326242l-5.898496,0l0,-1.663121l5.898496,0l0,1.663121l0,0zm0,-3.326242l-5.898496,0l0,-1.663121l5.898496,0l0,1.663121l0,0z"/>
 </g>
</svg>