<svg width="16" height="16" xmlns="http://www.w3.org/2000/svg">

 <g>
  <title>background</title>
  <rect fill="none" id="canvas_background" height="18" width="18" y="-1" x="-1"/>
 </g>
 <g>
  <title>Layer 1</title>
  <path stroke="null" fill="#ffffff" id="svg_2" d="m15.449857,13.280108c-1.916692,-0.333347 -2.0611,-0.651767 -2.0611,-0.651767c0.393841,-2.69165 -0.827066,-6.099746 -2.826902,-7.945591c-2.656237,-2.452834 -6.699669,-0.671669 -9.846019,-4.403161c-0.735169,-0.870682 -0.306321,9.76656 3.632087,13.796571c2.879414,2.945391 6.27082,2.039883 7.20291,1.557276c0.84457,-0.437828 1.435331,-1.238855 1.435331,-1.238855c1.535979,0.537335 2.297404,0.507483 2.297404,0.507483c0.538249,0.07463 0.809562,-1.512498 0.166288,-1.621955zm-3.509559,0.179112c-5.045538,-1.696585 -8.839537,-7.652047 -8.839537,-7.652047s3.330142,4.46784 9.19837,6.642057c0.008752,0.338322 -0.166288,0.820928 -0.358833,1.009991z"/>
 </g>
</svg>