<svg width="12" height="12" xmlns="http://www.w3.org/2000/svg">
 <title/>
 <desc/>

 <g>
  <title>background</title>
  <rect fill="none" id="canvas_background" height="14" width="14" y="-1" x="-1"/>
 </g>
 <g>
  <title>Layer 1</title>
  <path stroke="null" fill="#ffffff" id="Shape" d="m3.193986,5.316917c0.727485,1.59386 1.974603,2.903102 3.429574,3.756955l1.143191,-1.252318c0.15589,-0.170771 0.363743,-0.227694 0.519632,-0.113847c0.571596,0.227694 1.195154,0.341541 1.870677,0.341541c0.311779,0 0.519632,0.227694 0.519632,0.569236l0,1.935401c0,0.341541 -0.207853,0.569236 -0.519632,0.569236c-4.884544,0 -8.83375,-4.326191 -8.83375,-9.677005c0,-0.341541 0.207853,-0.569236 0.519632,-0.569236l1.818713,0c0.311779,0 0.519632,0.227694 0.519632,0.569236c0,0.683083 0.103926,1.366165 0.311779,2.049248c0.051963,0.170771 0,0.398465 -0.103926,0.569236l-1.195154,1.252318l0,0z"/>
 </g>
</svg>