<svg width="14" height="14" xmlns="http://www.w3.org/2000/svg">

 <g>
  <title>background</title>
  <rect fill="none" id="canvas_background" height="16" width="16" y="-1" x="-1"/>
 </g>
 <g>
  <title>Layer 1</title>
  <path stroke="null" transform="rotate(45 6.842042922973633,7.049203872680663) " id="svg_1" fill="#ffffff" d="m7.252799,6.310967l0,-2.542816c0.492907,0 0.821512,-0.246079 0.821512,-0.574184l0,-4.593475c0,-0.328105 -0.410756,-0.574184 -0.821512,-0.574184l-0.821512,0c-0.492907,0 -0.821512,0.246079 -0.821512,0.574184l0,4.511448c0,0.410132 0.328605,0.656211 0.821512,0.656211l0,2.46079c-0.985814,0.082026 -2.13593,0.738237 -3.286046,2.46079l2.793139,6.562107c0,0 0.492907,0.820263 0.903663,0.820263s0.903663,-0.820263 0.903663,-0.820263l2.793139,-6.562107c0,0 -1.39657,-2.050658 -3.286046,-2.378764z"/>
 </g>
</svg>